# xmcd
#
# Track frame offsets:
#	150
#	15150
#	30875
#	46300
#	60013
#	78051
#	94064
#	109764
#	124964
#	138664
#	153314
#	166239
#	182289
#	197652
#	215627
#	229527
#	248752
#	263740
#	278515
#	297628
#
# Disc length: 4169 seconds
#
# Revision: 1
# Processed by: cddbd v1.5.2PL0 Copyright (c) Steve Scherf et al.
# Submitted via: audiograbber 1.83.01
#
DISCID=fa104714
DTITLE=Various Artist - Halland's Country Hits Volume 1
DYEAR=1900
DGENRE=
TTITLE0=Alabama - Born Country
TTITLE1=Alabama - Close Enough To Perfect
TTITLE2=Alabama - Down Home
TTITLE3=Alabama - Face To Face
TTITLE4=Alabama - Fallin' Again
TTITLE5=Alabama - Feels So Right
TTITLE6=Alabama - Forever's As Far As I'll Go
TTITLE7=Alabama - Forty Hour Week
TTITLE8=Alabama - High Cotton
TTITLE9=Alabama - Hometown Honeymoon
TTITLE10=Alabama - I'm In A Hurry (And Don't Know...)
TTITLE11=Alabama - If I Had You
TTITLE12=Alabama - Jukebox In My Mind
TTITLE13=Alabama - Lady Down On Love
TTITLE14=Alabama - Old Flame
TTITLE15=Alabama - Once Upon A Lifetime
TTITLE16=Alabama - Reckless
TTITLE17=Alabama - Take A Little Trip
TTITLE18=Alabama - There's No Way
TTITLE19=John Anderson - Let Go Of The Stone
EXTD=
EXTT0=
EXTT1=
EXTT2=
EXTT3=
EXTT4=
EXTT5=
EXTT6=
EXTT7=
EXTT8=
EXTT9=
EXTT10=
EXTT11=
EXTT12=
EXTT13=
EXTT14=
EXTT15=
EXTT16=
EXTT17=
EXTT18=
EXTT19=
PLAYORDER=
